<svg id="Layer_1" data-name="Layer 1" xmlns="http://www.w3.org/2000/svg" viewBox="0 0 97.53 97.53"><title>logo_alpa_ret</title><circle cx="48.77" cy="48.77" r="33.63" style="fill:#fff"/><path d="M92.85,26.74A48.76,48.76,0,1,0,27.48,93.25l1,.53a49,49,0,0,0,15.64,4.63l1.17.13a48.76,48.76,0,0,0,47.51-71.8ZM40.66,81.53a32.89,32.89,0,1,1,25-2.63A32.67,32.67,0,0,1,40.66,81.53Z" transform="translate(-1.23 -1.23)" style="fill:#6d1410"/><path d="M91,27.75A46.63,46.63,0,1,0,28.46,91.37l1,.51a46.9,46.9,0,0,0,15,4.43l1.12.12A46.64,46.64,0,0,0,91,27.75ZM40.34,82.6a34,34,0,1,1,25.88-2.72A33.77,33.77,0,0,1,40.34,82.6Z" transform="translate(-1.23 -1.23)" style="fill:#203c88"/><path d="M22.75,22.37l-2.38-2.74a1.84,1.84,0,0,1,.35-2.73,1.71,1.71,0,0,1,2.56,0l.51.59-1,.83-.44-.5a.63.63,0,1,0-.93.84l2.32,2.68a.6.6,0,0,0,.92.09.58.58,0,0,0,.06-.87l-.42-.49,1-.83.48.55a1.75,1.75,0,0,1-.28,2.59A1.8,1.8,0,0,1,22.75,22.37Z" transform="translate(-1.23 -1.23)" style="fill:#fff"/><path d="M24.91,15.27,23.8,16l-.67-1,3.38-2.3.67,1-1.1.75,3.32,4.89-1.17.79Z" transform="translate(-1.23 -1.23)" style="fill:#fff"/><path d="M29.23,12.59,28,13.21l-.55-1.05,3.63-1.89.55,1.05-1.18.61,2.73,5.24L32,17.83Z" transform="translate(-1.23 -1.23)" style="fill:#fff"/><path d="M34.12,9l1.94-.64a1.8,1.8,0,0,1,2.48,1.39,1.92,1.92,0,0,1-.2,2l1.85,2.68-1.38.46-1.57-2.45-.44.15.88,2.67-1.33.44ZM37,11.47c.38-.12.52-.46.28-1.19s-.52-.91-.94-.77l-.48.16.65,2Z" transform="translate(-1.23 -1.23)" style="fill:#fff"/><path d="M40.38,12.53l-.66-3.38a1.86,1.86,0,0,1,1.65-2.29,1.83,1.83,0,0,1,2.38,1.48l.66,3.38A1.87,1.87,0,0,1,42.76,14,1.82,1.82,0,0,1,40.38,12.53ZM43,12l-.68-3.47a.6.6,0,0,0-.76-.51.58.58,0,0,0-.49.76l.67,3.45A.64.64,0,1,0,43,12Z" transform="translate(-1.23 -1.23)" style="fill:#fff"/><path d="M46.23,10.61,44.44,6.43l1.49-.11,1,2.59.56-2.7,1.34-.1-1.16,4.41.2,2.78-1.41.1Z" transform="translate(-1.23 -1.23)" style="fill:#fff"/><path d="M50.86,6.15l1.91.08,1.08,7.16-1.42-.06-.22-1.6-1.44-.06-.36,1.58-1.29-.06ZM52,10.58l-.35-2.81h0L51,10.54Z" transform="translate(-1.23 -1.23)" style="fill:#fff"/><path d="M55.57,6.49l1.37.23-1,5.81,2,.33L57.79,14l-3.38-.56Z" transform="translate(-1.23 -1.23)" style="fill:#fff"/><path d="M63.32,8.21l1.81.61-1,7.17-1.35-.46.24-1.6-1.37-.46-.78,1.42-1.22-.41Zm-.12,4.58.45-2.8h0l-1.36,2.49Z" transform="translate(-1.23 -1.23)" style="fill:#fff"/><path d="M67.75,9.86l1.26.6-2.55,5.31,1.83.88-.52,1.09-3.09-1.48Z" transform="translate(-1.23 -1.23)" style="fill:#fff"/><path d="M72.09,12l1.82,1.15c1,.62,1.06,1.58.32,2.76s-1.71,1.69-2.76,1l-.59-.37-1.38,2.19L68.31,18Zm-.19,3.85c.35.22.73,0,1.15-.65s.4-1,0-1.2l-.42-.27-1.17,1.86Z" transform="translate(-1.23 -1.23)" style="fill:#fff"/><path d="M77.21,15.47l1.49,1.2-3.39,6.4-1.11-.89L75,20.75l-1.12-.91L72.63,20.9l-1-.81Zm-1.7,4.26,1.39-2.47,0,0L74.74,19.1Z" transform="translate(-1.23 -1.23)" style="fill:#fff"/><path d="M60.21,26.36c4.09-.06,6.4,1.3,7.74,3.92,1.58,3.08.32,7.4-1.82,9a9.63,9.63,0,0,1-3.63,1.63,6.72,6.72,0,0,1-3.44-.38c-2.83-1.06-4.14-2.65-4.88-5.83a7,7,0,0,1,.1-3.06,7.93,7.93,0,0,1,3.25-4.3C58.28,26.86,59.5,26.83,60.21,26.36Z" transform="translate(-1.23 -1.23)" style="fill:#203c88;fill-rule:evenodd"/><path d="M53.23,43.76c-2.45.75-4.26,5.57-6.5,7.17-4,2.86-8.36-1.09-10.9-3a9.14,9.14,0,0,1-2-1.82c-.73-1-1.23-2.39-2.1-3.25.36-.28.85-.32,1.24-.57a7.11,7.11,0,0,0,2.39-3c1.79-4.23-1.64-8.54-4.68-9.47l-2.2-.1c-.56.36-1.36.34-1.91.67a6.77,6.77,0,0,0-2.87,4.21,6.46,6.46,0,0,0,3,7.55c.77.5,2.36,1.33,3.73.86a25.34,25.34,0,0,0,1,4.68,17.89,17.89,0,0,0,9.08,9,12.26,12.26,0,0,0,7.27.19C52.15,55.62,55.63,53.45,57,49,57.83,46.14,56.31,42.82,53.23,43.76Zm-23-2.68a3,3,0,0,1-1.72-.29c-2.12-.79-3.52-3.09-2.58-6a4.6,4.6,0,0,1,1.82-2.49c.29-.18.69-.19,1-.38C34.16,31.81,35.65,39.8,30.19,41.09Z" transform="translate(-1.23 -1.23)" style="fill:#203c88;fill-rule:evenodd"/><path d="M72.64,40.51c5.25-.06,6.57,7.27,5,12-1.39,4.14-4.1,7.35-8.32,8.7-2.49.8-8.25.74-10.52-.19a17.71,17.71,0,0,1-3.92-2.49,4.64,4.64,0,0,1-1.91-2h.48c1,.68,2.59.72,3.92,1.05C62.19,58.82,69.81,56.4,71,53c1.31-3.63-1.79-7.86-.48-11C71,41,71.8,41.12,72.64,40.51Z" transform="translate(-1.23 -1.23)" style="fill:#203c88;fill-rule:evenodd"/><polygon points="72.98 63.24 27.62 63.67 20.85 62.55 24.85 62.02 74.44 62.02 75.8 62.55 72.98 63.24" style="fill:#203c88"/><path d="M43.66,87.09,43.14,87l.15-1L44.61,86l.71.24-2.24,6.68-1.23-.41Z" transform="translate(-1.23 -1.23)" style="fill:#fff"/><path d="M45.24,92l.08-.54,1.23.17-.06.46a.41.41,0,0,0,.35.53.45.45,0,0,0,.54-.43l.23-1.6a1.19,1.19,0,0,1-1,.3,1.14,1.14,0,0,1-1.07-1.39l.23-1.61a1.58,1.58,0,0,1,2-1.31,1.61,1.61,0,0,1,1.53,1.87l-.53,3.77a1.69,1.69,0,0,1-2,1.53A1.52,1.52,0,0,1,45.24,92Zm2.5-2.39.2-1.42A.46.46,0,1,0,47,88.1l-.21,1.49a.42.42,0,0,0,.38.5A.5.5,0,0,0,47.74,89.65Z" transform="translate(-1.23 -1.23)" style="fill:#fff"/><path d="M50,92.41,50,92l1.21-.06,0,.47c0,.35.19.56.49.55s.47-.22.43-1-.4-.94-.72-.92L51,91l-.06-1.19.51,0c.39,0,.59-.22.55-1s-.24-.88-.5-.86-.41.27-.39.6l0,.43L49.88,89l0-.41a1.58,1.58,0,0,1,1.65-1.82c1,0,1.65.52,1.72,1.76,0,.79-.15,1.48-.77,1.73v0a1.51,1.51,0,0,1,1,1.55c.08,1.49-.77,2.12-1.65,2.17A1.54,1.54,0,0,1,50,92.41Z" transform="translate(-1.23 -1.23)" style="fill:#fff"/><path d="M54.87,92.21l-.12-.53L56,91.4l.1.45a.41.41,0,0,0,.52.37.45.45,0,0,0,.35-.59l-.36-1.57a1.19,1.19,0,0,1-.83.64,1.14,1.14,0,0,1-1.49-.92l-.36-1.58a1.58,1.58,0,0,1,1.38-1.93,1.61,1.61,0,0,1,2.09,1.2l.85,3.72a1.69,1.69,0,0,1-1.33,2.14A1.52,1.52,0,0,1,54.87,92.21Zm1.48-3.13L56,87.68a.46.46,0,1,0-.9.22l.34,1.47a.42.42,0,0,0,.53.33A.5.5,0,0,0,56.35,89.08Z" transform="translate(-1.23 -1.23)" style="fill:#fff"/><circle cx="44.41" cy="44.94" r="2.08" style="fill:#6d1410"/><path d="M31.88,70.39l.94,0c0,.31.1.68.46.68s.37-.24.37-.47-.18-.49-.47-.76l-.49-.48A1.89,1.89,0,0,1,32,67.92a1.25,1.25,0,0,1,1.35-1.32c.64,0,1.23.33,1.27,1.44l-.89,0c0-.37-.12-.66-.44-.66s-.36.19-.36.43.28.53.52.76l.45.44a2,2,0,0,1,.77,1.48,1.29,1.29,0,0,1-1.37,1.34A1.36,1.36,0,0,1,31.88,70.39Z" transform="translate(-1.23 -1.23)" style="fill:#6d1410"/><path d="M35.09,70.87V69a1,1,0,0,1,1.07-1,.9.9,0,0,1,1,.89v.41h-.67V69a.33.33,0,1,0-.65,0v1.85a.31.31,0,0,0,.33.35.31.31,0,0,0,.32-.32v-.34h.67v.38a.91.91,0,0,1-1,.93A.94.94,0,0,1,35.09,70.87Z" transform="translate(-1.23 -1.23)" style="fill:#6d1410"/><path d="M37.58,68.08h.73v1.5H39v-1.5h.73v3.71H39V70.25h-.64v1.54h-.73Z" transform="translate(-1.23 -1.23)" style="fill:#6d1410"/><path d="M40.82,68.07h1l.72,3.71H41.8L41.65,71h-.75l-.15.83h-.68Zm.71,2.29-.24-1.46h0L41,70.36Z" transform="translate(-1.23 -1.23)" style="fill:#6d1410"/><path d="M42.92,68.08H44.7v.62H43.65v.87h.84v.62h-.84v1h1.06v.63H42.92Z" transform="translate(-1.23 -1.23)" style="fill:#6d1410"/><path d="M45.15,68.08h1.07c.62,0,1,.34,1,1.1a1,1,0,0,1-.43,1l.48,1.63H46.5l-.38-1.47h-.24v1.47h-.73Zm1,1.69c.21,0,.33-.15.33-.55s-.11-.54-.34-.54h-.27v1.08Z" transform="translate(-1.23 -1.23)" style="fill:#6d1410"/><path d="M47.67,68.08h1.19c.53,0,.86.29.86.95s-.21.78-.49.86v0a.76.76,0,0,1,.51.83c0,.71-.35,1-.85,1H47.67Zm1,1.54c.21,0,.32-.16.32-.5s-.11-.45-.29-.45h-.3v1Zm0,1.57c.2,0,.3-.18.3-.49s-.12-.48-.32-.48H48.4v1Z" transform="translate(-1.23 -1.23)" style="fill:#6d1410"/><path d="M50.19,68.08H52v.62H50.92v.87h.84v.62h-.84v1H52v.63H50.19Z" transform="translate(-1.23 -1.23)" style="fill:#6d1410"/><path d="M52.42,68.08H54.2v.62H53.14v.87H54v.62h-.84v1H54.2v.63H52.42Z" transform="translate(-1.23 -1.23)" style="fill:#6d1410"/><path d="M54.64,68.08h.73v1.64l.71-1.64h.72l-.66,1.45.67,2.26H56l-.43-1.65-.23.44v1.21h-.73Z" transform="translate(-1.23 -1.23)" style="fill:#6d1410"/><path d="M46.66,72.25h1l.41,3h0l.45-3h1l.43,3h0l.41-3h.89l-.82,5.12h-.94L49,74.13h0l-.51,3.25h-1Z" transform="translate(-1.23 -1.23)" style="fill:#6d1410"/><path d="M51.58,76.4V74.6a1,1,0,0,1,1.08-1,1,1,0,0,1,1.07,1v1.8a1,1,0,0,1-1.08,1A1,1,0,0,1,51.58,76.4Zm1.41,0V74.57a.31.31,0,0,0-.34-.34.31.31,0,0,0-.33.34v1.84a.33.33,0,1,0,.67,0Z" transform="translate(-1.23 -1.23)" style="fill:#6d1410"/><path d="M54.19,73.65h.73v3.08H56v.63H54.19Z" transform="translate(-1.23 -1.23)" style="fill:#6d1410"/><path d="M56.28,76.43V73.65H57V76.4a.33.33,0,0,0,.33.37c.21,0,.32-.15.32-.37V73.65h.7v2.76a1,1,0,0,1-1.07,1A.9.9,0,0,1,56.28,76.43Z" transform="translate(-1.23 -1.23)" style="fill:#6d1410"/><path d="M58.69,73.65h.72l.3,2.21h0l.33-2.21h.7l.31,2.2h0l.3-2.2H62l-.6,3.72h-.68L60.38,75h0L60,77.37H59.3Z" transform="translate(-1.23 -1.23)" style="fill:#6d1410"/><path d="M62.35,73.65h1.78v.62H63.08v.87h.84v.62h-.84v1h1.06v.63H62.35Zm1-1H64l-.53.78H63Z" transform="translate(-1.23 -1.23)" style="fill:#6d1410"/></svg>